<svg xmlns="http://www.w3.org/2000/svg" xmlns:xlink="http://www.w3.org/1999/xlink" width="1280" zoomAndPan="magnify" viewBox="0 0 960 540.000001" height="720" preserveAspectRatio="xMidYMid meet" version="1.0"><defs><g/></defs><g fill="#425377" fill-opacity="0.4196"><g transform="translate(90.045056, 321.534739)"><g><path d="M 44.296875 1.703125 C 32.085938 1.703125 22.429688 -1.453125 15.328125 -7.765625 C 8.234375 -14.085938 4.6875 -22.5 4.6875 -33 C 4.6875 -34 4.828125 -35.773438 5.109375 -38.328125 L 5.96875 -44.9375 C 6.101562 -45.925781 6.488281 -46.703125 7.125 -47.265625 C 7.769531 -47.835938 8.519531 -48.125 9.375 -48.125 L 41.734375 -48.125 C 42.585938 -48.125 43.257812 -47.835938 43.75 -47.265625 C 44.25 -46.703125 44.429688 -45.925781 44.296875 -44.9375 L 43.875 -40.25 C 43.582031 -37.976562 43.863281 -36.128906 44.71875 -34.703125 C 45.570312 -33.285156 46.847656 -32.578125 48.546875 -32.578125 C 50.398438 -32.578125 51.960938 -33.359375 53.234375 -34.921875 C 54.515625 -36.484375 55.15625 -38.398438 55.15625 -40.671875 C 55.15625 -42.804688 54.125 -45.007812 52.0625 -47.28125 C 50.007812 -49.550781 46.070312 -53.023438 40.25 -57.703125 C 34.570312 -62.390625 29.882812 -66.539062 26.1875 -70.15625 C 22.5 -73.78125 19.304688 -78.253906 16.609375 -83.578125 C 13.910156 -88.898438 12.5625 -94.972656 12.5625 -101.796875 C 12.5625 -103.066406 12.703125 -105.265625 12.984375 -108.390625 C 14.546875 -121.023438 19.800781 -131.242188 28.75 -139.046875 C 37.695312 -146.859375 48.84375 -150.765625 62.1875 -150.765625 C 74.394531 -150.765625 84.007812 -147.5 91.03125 -140.96875 C 98.0625 -134.4375 101.578125 -125.632812 101.578125 -114.5625 C 101.578125 -113.289062 101.4375 -111.234375 101.15625 -108.390625 L 100.515625 -103.703125 C 100.367188 -102.710938 99.976562 -101.929688 99.34375 -101.359375 C 98.707031 -100.796875 97.960938 -100.515625 97.109375 -100.515625 L 64.953125 -100.515625 C 64.097656 -100.515625 63.421875 -100.796875 62.921875 -101.359375 C 62.429688 -101.929688 62.253906 -102.710938 62.390625 -103.703125 L 63.03125 -109.25 C 63.175781 -111.375 62.785156 -113.109375 61.859375 -114.453125 C 60.941406 -115.804688 59.628906 -116.484375 57.921875 -116.484375 C 55.929688 -116.484375 54.296875 -115.628906 53.015625 -113.921875 C 51.742188 -112.222656 51.109375 -109.953125 51.109375 -107.109375 C 51.109375 -104.703125 52.101562 -102.21875 54.09375 -99.65625 C 56.082031 -97.101562 59.769531 -93.554688 65.15625 -89.015625 C 72.40625 -82.910156 77.945312 -77.976562 81.78125 -74.21875 C 85.613281 -70.457031 88.628906 -66.335938 90.828125 -61.859375 C 93.023438 -57.390625 94.125 -52.316406 94.125 -46.640625 C 94.125 -45.503906 93.984375 -43.515625 93.703125 -40.671875 C 91.992188 -27.753906 86.628906 -17.460938 77.609375 -9.796875 C 68.597656 -2.128906 57.492188 1.703125 44.296875 1.703125 Z M 44.296875 1.703125 "/></g></g></g><g fill="#425377" fill-opacity="0.4196"><g transform="translate(185.661556, 321.534739)"><g><path d="M 61.125 -107.546875 C 61.257812 -108.535156 61.644531 -109.3125 62.28125 -109.875 C 62.925781 -110.445312 63.675781 -110.734375 64.53125 -110.734375 L 97.3125 -110.734375 C 98.164062 -110.734375 98.84375 -110.445312 99.34375 -109.875 C 99.84375 -109.3125 100.019531 -108.535156 99.875 -107.546875 L 87.09375 -3.1875 C 86.957031 -2.195312 86.601562 -1.414062 86.03125 -0.84375 C 85.46875 -0.28125 84.6875 0 83.6875 0 L 51.109375 0 C 50.117188 0 49.375 -0.28125 48.875 -0.84375 C 48.375 -1.414062 48.195312 -2.195312 48.34375 -3.1875 L 48.546875 -4.46875 C 48.546875 -4.894531 48.40625 -5.175781 48.125 -5.3125 C 47.84375 -5.457031 47.5625 -5.316406 47.28125 -4.890625 C 45.007812 -2.335938 42.378906 -0.601562 39.390625 0.3125 C 36.410156 1.238281 33.003906 1.703125 29.171875 1.703125 C 21.785156 1.703125 15.644531 -0.390625 10.75 -4.578125 C 5.851562 -8.765625 3.40625 -15.332031 3.40625 -24.28125 C 3.40625 -25.695312 3.546875 -27.828125 3.828125 -30.671875 L 13.203125 -107.546875 C 13.347656 -108.535156 13.738281 -109.3125 14.375 -109.875 C 15.007812 -110.445312 15.753906 -110.734375 16.609375 -110.734375 L 49.40625 -110.734375 C 50.257812 -110.734375 50.929688 -110.445312 51.421875 -109.875 C 51.921875 -109.3125 52.097656 -108.535156 51.953125 -107.546875 L 43.65625 -39.390625 C 43.507812 -38.828125 43.4375 -38.117188 43.4375 -37.265625 C 43.4375 -34.140625 44.71875 -32.578125 47.28125 -32.578125 C 50.257812 -32.578125 52.101562 -34.847656 52.8125 -39.390625 Z M 61.125 -107.546875 "/></g></g></g><g fill="#425377" fill-opacity="0.4196"><g transform="translate(281.065114, 321.534739)"><g><path d="M 73.046875 -112.4375 C 81.554688 -112.4375 87.726562 -110.09375 91.5625 -105.40625 C 95.394531 -100.726562 97.3125 -93.914062 97.3125 -84.96875 C 97.3125 -81.707031 97.101562 -78.226562 96.6875 -74.53125 L 92 -36.203125 C 90.4375 -23.566406 86.992188 -14.085938 81.671875 -7.765625 C 76.347656 -1.453125 68.785156 1.703125 58.984375 1.703125 C 50.753906 1.703125 45.078125 -1.632812 41.953125 -8.3125 C 41.671875 -8.726562 41.382812 -8.898438 41.09375 -8.828125 C 40.8125 -8.765625 40.671875 -8.445312 40.671875 -7.875 L 35.34375 35.140625 C 35.207031 36.128906 34.816406 36.90625 34.171875 37.46875 C 33.535156 38.039062 32.789062 38.328125 31.9375 38.328125 L -0.859375 38.328125 C -1.703125 38.328125 -2.375 38.039062 -2.875 37.46875 C -3.375 36.90625 -3.550781 36.128906 -3.40625 35.140625 L 14.0625 -107.546875 C 14.195312 -108.535156 14.582031 -109.3125 15.21875 -109.875 C 15.863281 -110.445312 16.613281 -110.734375 17.46875 -110.734375 L 50.25 -110.734375 C 51.101562 -110.734375 51.78125 -110.445312 52.28125 -109.875 C 52.78125 -109.3125 52.957031 -108.535156 52.8125 -107.546875 L 52.390625 -102.859375 L 52.390625 -102.640625 C 52.390625 -102.503906 52.457031 -102.4375 52.59375 -102.4375 C 52.882812 -102.4375 53.664062 -103.070312 54.9375 -104.34375 C 59.769531 -109.738281 65.804688 -112.4375 73.046875 -112.4375 Z M 57.5 -72.828125 C 57.5 -74.390625 57.175781 -75.664062 56.53125 -76.65625 C 55.894531 -77.65625 55.082031 -78.15625 54.09375 -78.15625 C 52.664062 -78.15625 51.421875 -77.550781 50.359375 -76.34375 C 49.296875 -75.132812 48.625 -73.46875 48.34375 -71.34375 L 44.5 -39.390625 C 44.21875 -37.410156 44.429688 -35.78125 45.140625 -34.5 C 45.847656 -33.21875 46.914062 -32.578125 48.34375 -32.578125 C 49.757812 -32.578125 50.925781 -33.179688 51.84375 -34.390625 C 52.769531 -35.597656 53.378906 -37.265625 53.671875 -39.390625 L 57.5 -71.34375 Z M 57.5 -72.828125 "/></g></g></g><g fill="#425377" fill-opacity="0.4196"><g transform="translate(376.468685, 321.534739)"><g><path d="M 92.421875 -48.546875 C 92.273438 -47.554688 91.914062 -46.773438 91.34375 -46.203125 C 90.78125 -45.640625 90.003906 -45.359375 89.015625 -45.359375 L 44.9375 -45.359375 C 44.644531 -45.359375 44.394531 -45.25 44.1875 -45.03125 C 43.976562 -44.820312 43.875 -44.578125 43.875 -44.296875 L 43.234375 -39.390625 C 42.941406 -37.410156 43.1875 -35.78125 43.96875 -34.5 C 44.75 -33.21875 45.851562 -32.578125 47.28125 -32.578125 C 49.6875 -32.578125 51.457031 -34.351562 52.59375 -37.90625 C 53.445312 -39.894531 54.726562 -40.816406 56.4375 -40.671875 L 87.734375 -38.546875 C 89.867188 -38.265625 90.722656 -37.128906 90.296875 -35.140625 C 88.023438 -22.640625 83.054688 -13.375 75.390625 -7.34375 C 67.722656 -1.3125 56.929688 1.703125 43.015625 1.703125 C 30.378906 1.703125 20.65625 -1.0625 13.84375 -6.59375 C 7.03125 -12.132812 3.625 -20.015625 3.625 -30.234375 C 3.625 -31.367188 3.765625 -33.359375 4.046875 -36.203125 L 8.734375 -74.53125 C 10.148438 -86.03125 15.148438 -95.222656 23.734375 -102.109375 C 32.328125 -108.992188 43.441406 -112.4375 57.078125 -112.4375 C 69.566406 -112.4375 79.179688 -109.523438 85.921875 -103.703125 C 92.671875 -97.890625 96.046875 -90.015625 96.046875 -80.078125 C 96.046875 -78.929688 95.898438 -77.082031 95.609375 -74.53125 Z M 52.8125 -78.15625 C 51.394531 -78.15625 50.1875 -77.515625 49.1875 -76.234375 C 48.195312 -74.960938 47.5625 -73.332031 47.28125 -71.34375 L 46.421875 -66.015625 C 46.421875 -65.304688 46.773438 -64.953125 47.484375 -64.953125 L 54.734375 -64.953125 C 55.441406 -64.953125 55.796875 -65.304688 55.796875 -66.015625 L 56.4375 -71.34375 L 56.640625 -73.046875 C 56.640625 -74.460938 56.285156 -75.664062 55.578125 -76.65625 C 54.867188 -77.65625 53.945312 -78.15625 52.8125 -78.15625 Z M 52.8125 -78.15625 "/></g></g></g><g fill="#425377" fill-opacity="0.4196"><g transform="translate(470.381566, 321.534739)"><g><path d="M 70.28125 -112.21875 C 73.539062 -112.21875 76.234375 -111.507812 78.359375 -110.09375 C 79.503906 -109.382812 79.863281 -108.035156 79.4375 -106.046875 L 70.0625 -72.609375 C 69.78125 -71.472656 69.351562 -70.765625 68.78125 -70.484375 C 68.21875 -70.203125 67.367188 -70.203125 66.234375 -70.484375 C 64.953125 -70.910156 63.390625 -71.125 61.546875 -71.125 C 58.703125 -71.125 56.285156 -70.628906 54.296875 -69.640625 C 52.171875 -68.640625 50.394531 -67.039062 48.96875 -64.84375 C 47.550781 -62.644531 46.703125 -60.410156 46.421875 -58.140625 L 39.609375 -3.40625 C 39.460938 -2.414062 39.101562 -1.632812 38.53125 -1.0625 C 37.96875 -0.5 37.191406 -0.21875 36.203125 -0.21875 L 3.625 -0.21875 C 2.625 -0.21875 1.875 -0.5 1.375 -1.0625 C 0.882812 -1.632812 0.710938 -2.414062 0.859375 -3.40625 L 13.625 -107.546875 C 13.769531 -108.535156 14.160156 -109.3125 14.796875 -109.875 C 15.441406 -110.445312 16.1875 -110.734375 17.03125 -110.734375 L 49.828125 -110.734375 C 50.679688 -110.734375 51.351562 -110.445312 51.84375 -109.875 C 52.34375 -109.3125 52.523438 -108.535156 52.390625 -107.546875 L 51.75 -102.640625 C 51.75 -102.078125 51.851562 -101.757812 52.0625 -101.6875 C 52.28125 -101.613281 52.53125 -101.789062 52.8125 -102.21875 C 57.070312 -108.882812 62.894531 -112.21875 70.28125 -112.21875 Z M 70.28125 -112.21875 "/></g></g></g><g fill="#00349f" fill-opacity="1"><g transform="translate(83.714638, 315.834806)"><g><path d="M 44.296875 1.703125 C 32.085938 1.703125 22.429688 -1.453125 15.328125 -7.765625 C 8.234375 -14.085938 4.6875 -22.5 4.6875 -33 C 4.6875 -34 4.828125 -35.773438 5.109375 -38.328125 L 5.96875 -44.9375 C 6.101562 -45.925781 6.488281 -46.703125 7.125 -47.265625 C 7.769531 -47.835938 8.519531 -48.125 9.375 -48.125 L 41.734375 -48.125 C 42.585938 -48.125 43.257812 -47.835938 43.75 -47.265625 C 44.25 -46.703125 44.429688 -45.925781 44.296875 -44.9375 L 43.875 -40.25 C 43.582031 -37.976562 43.863281 -36.128906 44.71875 -34.703125 C 45.570312 -33.285156 46.847656 -32.578125 48.546875 -32.578125 C 50.398438 -32.578125 51.960938 -33.359375 53.234375 -34.921875 C 54.515625 -36.484375 55.15625 -38.398438 55.15625 -40.671875 C 55.15625 -42.804688 54.125 -45.007812 52.0625 -47.28125 C 50.007812 -49.550781 46.070312 -53.023438 40.25 -57.703125 C 34.570312 -62.390625 29.882812 -66.539062 26.1875 -70.15625 C 22.5 -73.78125 19.304688 -78.253906 16.609375 -83.578125 C 13.910156 -88.898438 12.5625 -94.972656 12.5625 -101.796875 C 12.5625 -103.066406 12.703125 -105.265625 12.984375 -108.390625 C 14.546875 -121.023438 19.800781 -131.242188 28.75 -139.046875 C 37.695312 -146.859375 48.84375 -150.765625 62.1875 -150.765625 C 74.394531 -150.765625 84.007812 -147.5 91.03125 -140.96875 C 98.0625 -134.4375 101.578125 -125.632812 101.578125 -114.5625 C 101.578125 -113.289062 101.4375 -111.234375 101.15625 -108.390625 L 100.515625 -103.703125 C 100.367188 -102.710938 99.976562 -101.929688 99.34375 -101.359375 C 98.707031 -100.796875 97.960938 -100.515625 97.109375 -100.515625 L 64.953125 -100.515625 C 64.097656 -100.515625 63.421875 -100.796875 62.921875 -101.359375 C 62.429688 -101.929688 62.253906 -102.710938 62.390625 -103.703125 L 63.03125 -109.25 C 63.175781 -111.375 62.785156 -113.109375 61.859375 -114.453125 C 60.941406 -115.804688 59.628906 -116.484375 57.921875 -116.484375 C 55.929688 -116.484375 54.296875 -115.628906 53.015625 -113.921875 C 51.742188 -112.222656 51.109375 -109.953125 51.109375 -107.109375 C 51.109375 -104.703125 52.101562 -102.21875 54.09375 -99.65625 C 56.082031 -97.101562 59.769531 -93.554688 65.15625 -89.015625 C 72.40625 -82.910156 77.945312 -77.976562 81.78125 -74.21875 C 85.613281 -70.457031 88.628906 -66.335938 90.828125 -61.859375 C 93.023438 -57.390625 94.125 -52.316406 94.125 -46.640625 C 94.125 -45.503906 93.984375 -43.515625 93.703125 -40.671875 C 91.992188 -27.753906 86.628906 -17.460938 77.609375 -9.796875 C 68.597656 -2.128906 57.492188 1.703125 44.296875 1.703125 Z M 44.296875 1.703125 "/></g></g></g><g fill="#00349f" fill-opacity="1"><g transform="translate(179.331138, 315.834806)"><g><path d="M 61.125 -107.546875 C 61.257812 -108.535156 61.644531 -109.3125 62.28125 -109.875 C 62.925781 -110.445312 63.675781 -110.734375 64.53125 -110.734375 L 97.3125 -110.734375 C 98.164062 -110.734375 98.84375 -110.445312 99.34375 -109.875 C 99.84375 -109.3125 100.019531 -108.535156 99.875 -107.546875 L 87.09375 -3.1875 C 86.957031 -2.195312 86.601562 -1.414062 86.03125 -0.84375 C 85.46875 -0.28125 84.6875 0 83.6875 0 L 51.109375 0 C 50.117188 0 49.375 -0.28125 48.875 -0.84375 C 48.375 -1.414062 48.195312 -2.195312 48.34375 -3.1875 L 48.546875 -4.46875 C 48.546875 -4.894531 48.40625 -5.175781 48.125 -5.3125 C 47.84375 -5.457031 47.5625 -5.316406 47.28125 -4.890625 C 45.007812 -2.335938 42.378906 -0.601562 39.390625 0.3125 C 36.410156 1.238281 33.003906 1.703125 29.171875 1.703125 C 21.785156 1.703125 15.644531 -0.390625 10.75 -4.578125 C 5.851562 -8.765625 3.40625 -15.332031 3.40625 -24.28125 C 3.40625 -25.695312 3.546875 -27.828125 3.828125 -30.671875 L 13.203125 -107.546875 C 13.347656 -108.535156 13.738281 -109.3125 14.375 -109.875 C 15.007812 -110.445312 15.753906 -110.734375 16.609375 -110.734375 L 49.40625 -110.734375 C 50.257812 -110.734375 50.929688 -110.445312 51.421875 -109.875 C 51.921875 -109.3125 52.097656 -108.535156 51.953125 -107.546875 L 43.65625 -39.390625 C 43.507812 -38.828125 43.4375 -38.117188 43.4375 -37.265625 C 43.4375 -34.140625 44.71875 -32.578125 47.28125 -32.578125 C 50.257812 -32.578125 52.101562 -34.847656 52.8125 -39.390625 Z M 61.125 -107.546875 "/></g></g></g><g fill="#00349f" fill-opacity="1"><g transform="translate(274.734696, 315.834806)"><g><path d="M 73.046875 -112.4375 C 81.554688 -112.4375 87.726562 -110.09375 91.5625 -105.40625 C 95.394531 -100.726562 97.3125 -93.914062 97.3125 -84.96875 C 97.3125 -81.707031 97.101562 -78.226562 96.6875 -74.53125 L 92 -36.203125 C 90.4375 -23.566406 86.992188 -14.085938 81.671875 -7.765625 C 76.347656 -1.453125 68.785156 1.703125 58.984375 1.703125 C 50.753906 1.703125 45.078125 -1.632812 41.953125 -8.3125 C 41.671875 -8.726562 41.382812 -8.898438 41.09375 -8.828125 C 40.8125 -8.765625 40.671875 -8.445312 40.671875 -7.875 L 35.34375 35.140625 C 35.207031 36.128906 34.816406 36.90625 34.171875 37.46875 C 33.535156 38.039062 32.789062 38.328125 31.9375 38.328125 L -0.859375 38.328125 C -1.703125 38.328125 -2.375 38.039062 -2.875 37.46875 C -3.375 36.90625 -3.550781 36.128906 -3.40625 35.140625 L 14.0625 -107.546875 C 14.195312 -108.535156 14.582031 -109.3125 15.21875 -109.875 C 15.863281 -110.445312 16.613281 -110.734375 17.46875 -110.734375 L 50.25 -110.734375 C 51.101562 -110.734375 51.78125 -110.445312 52.28125 -109.875 C 52.78125 -109.3125 52.957031 -108.535156 52.8125 -107.546875 L 52.390625 -102.859375 L 52.390625 -102.640625 C 52.390625 -102.503906 52.457031 -102.4375 52.59375 -102.4375 C 52.882812 -102.4375 53.664062 -103.070312 54.9375 -104.34375 C 59.769531 -109.738281 65.804688 -112.4375 73.046875 -112.4375 Z M 57.5 -72.828125 C 57.5 -74.390625 57.175781 -75.664062 56.53125 -76.65625 C 55.894531 -77.65625 55.082031 -78.15625 54.09375 -78.15625 C 52.664062 -78.15625 51.421875 -77.550781 50.359375 -76.34375 C 49.296875 -75.132812 48.625 -73.46875 48.34375 -71.34375 L 44.5 -39.390625 C 44.21875 -37.410156 44.429688 -35.78125 45.140625 -34.5 C 45.847656 -33.21875 46.914062 -32.578125 48.34375 -32.578125 C 49.757812 -32.578125 50.925781 -33.179688 51.84375 -34.390625 C 52.769531 -35.597656 53.378906 -37.265625 53.671875 -39.390625 L 57.5 -71.34375 Z M 57.5 -72.828125 "/></g></g></g><g fill="#00349f" fill-opacity="1"><g transform="translate(370.138266, 315.834806)"><g><path d="M 92.421875 -48.546875 C 92.273438 -47.554688 91.914062 -46.773438 91.34375 -46.203125 C 90.78125 -45.640625 90.003906 -45.359375 89.015625 -45.359375 L 44.9375 -45.359375 C 44.644531 -45.359375 44.394531 -45.25 44.1875 -45.03125 C 43.976562 -44.820312 43.875 -44.578125 43.875 -44.296875 L 43.234375 -39.390625 C 42.941406 -37.410156 43.1875 -35.78125 43.96875 -34.5 C 44.75 -33.21875 45.851562 -32.578125 47.28125 -32.578125 C 49.6875 -32.578125 51.457031 -34.351562 52.59375 -37.90625 C 53.445312 -39.894531 54.726562 -40.816406 56.4375 -40.671875 L 87.734375 -38.546875 C 89.867188 -38.265625 90.722656 -37.128906 90.296875 -35.140625 C 88.023438 -22.640625 83.054688 -13.375 75.390625 -7.34375 C 67.722656 -1.3125 56.929688 1.703125 43.015625 1.703125 C 30.378906 1.703125 20.65625 -1.0625 13.84375 -6.59375 C 7.03125 -12.132812 3.625 -20.015625 3.625 -30.234375 C 3.625 -31.367188 3.765625 -33.359375 4.046875 -36.203125 L 8.734375 -74.53125 C 10.148438 -86.03125 15.148438 -95.222656 23.734375 -102.109375 C 32.328125 -108.992188 43.441406 -112.4375 57.078125 -112.4375 C 69.566406 -112.4375 79.179688 -109.523438 85.921875 -103.703125 C 92.671875 -97.890625 96.046875 -90.015625 96.046875 -80.078125 C 96.046875 -78.929688 95.898438 -77.082031 95.609375 -74.53125 Z M 52.8125 -78.15625 C 51.394531 -78.15625 50.1875 -77.515625 49.1875 -76.234375 C 48.195312 -74.960938 47.5625 -73.332031 47.28125 -71.34375 L 46.421875 -66.015625 C 46.421875 -65.304688 46.773438 -64.953125 47.484375 -64.953125 L 54.734375 -64.953125 C 55.441406 -64.953125 55.796875 -65.304688 55.796875 -66.015625 L 56.4375 -71.34375 L 56.640625 -73.046875 C 56.640625 -74.460938 56.285156 -75.664062 55.578125 -76.65625 C 54.867188 -77.65625 53.945312 -78.15625 52.8125 -78.15625 Z M 52.8125 -78.15625 "/></g></g></g><g fill="#00349f" fill-opacity="1"><g transform="translate(464.051147, 315.834806)"><g><path d="M 70.28125 -112.21875 C 73.539062 -112.21875 76.234375 -111.507812 78.359375 -110.09375 C 79.503906 -109.382812 79.863281 -108.035156 79.4375 -106.046875 L 70.0625 -72.609375 C 69.78125 -71.472656 69.351562 -70.765625 68.78125 -70.484375 C 68.21875 -70.203125 67.367188 -70.203125 66.234375 -70.484375 C 64.953125 -70.910156 63.390625 -71.125 61.546875 -71.125 C 58.703125 -71.125 56.285156 -70.628906 54.296875 -69.640625 C 52.171875 -68.640625 50.394531 -67.039062 48.96875 -64.84375 C 47.550781 -62.644531 46.703125 -60.410156 46.421875 -58.140625 L 39.609375 -3.40625 C 39.460938 -2.414062 39.101562 -1.632812 38.53125 -1.0625 C 37.96875 -0.5 37.191406 -0.21875 36.203125 -0.21875 L 3.625 -0.21875 C 2.625 -0.21875 1.875 -0.5 1.375 -1.0625 C 0.882812 -1.632812 0.710938 -2.414062 0.859375 -3.40625 L 13.625 -107.546875 C 13.769531 -108.535156 14.160156 -109.3125 14.796875 -109.875 C 15.441406 -110.445312 16.1875 -110.734375 17.03125 -110.734375 L 49.828125 -110.734375 C 50.679688 -110.734375 51.351562 -110.445312 51.84375 -109.875 C 52.34375 -109.3125 52.523438 -108.535156 52.390625 -107.546875 L 51.75 -102.640625 C 51.75 -102.078125 51.851562 -101.757812 52.0625 -101.6875 C 52.28125 -101.613281 52.53125 -101.789062 52.8125 -102.21875 C 57.070312 -108.882812 62.894531 -112.21875 70.28125 -112.21875 Z M 70.28125 -112.21875 "/></g></g></g><g fill="#425377" fill-opacity="0.4196"><g transform="translate(541.936348, 321.534739)"><g><path d="M 66.234375 0 C 64.242188 0 63.316406 -0.992188 63.453125 -2.984375 L 63.03125 -19.171875 C 63.175781 -19.453125 63.101562 -19.695312 62.8125 -19.90625 C 62.53125 -20.125 62.25 -20.234375 61.96875 -20.234375 L 43.4375 -20.234375 C 42.726562 -20.234375 42.234375 -19.878906 41.953125 -19.171875 L 37.90625 -2.984375 C 37.476562 -0.992188 36.269531 0 34.28125 0 L 1.921875 0 C -0.210938 0 -0.992188 -1.132812 -0.421875 -3.40625 L 46.421875 -146.296875 C 46.992188 -148.140625 48.269531 -149.0625 50.25 -149.0625 L 87.953125 -149.0625 C 89.941406 -149.0625 91.003906 -148.140625 91.140625 -146.296875 L 102.859375 -3.40625 L 102.859375 -2.984375 C 102.859375 -0.992188 101.789062 0 99.65625 0 Z M 50.6875 -51.953125 C 50.394531 -51.242188 50.609375 -50.890625 51.328125 -50.890625 L 61.328125 -50.890625 C 61.753906 -50.890625 62.109375 -51.242188 62.390625 -51.953125 L 61.546875 -91.359375 C 61.546875 -91.921875 61.367188 -92.164062 61.015625 -92.09375 C 60.660156 -92.03125 60.484375 -91.785156 60.484375 -91.359375 Z M 50.6875 -51.953125 "/></g></g></g><g fill="#425377" fill-opacity="0.4196"><g transform="translate(651.607858, 321.534739)"><g><path d="M 68.78125 -149.0625 C 80.132812 -149.0625 89.113281 -145.40625 95.71875 -138.09375 C 102.320312 -130.789062 105.625 -121.101562 105.625 -109.03125 C 105.625 -105.625 105.484375 -103 105.203125 -101.15625 C 104.066406 -92.070312 101.40625 -84.050781 97.21875 -77.09375 C 93.03125 -70.132812 87.632812 -64.773438 81.03125 -61.015625 C 74.425781 -57.253906 67.148438 -55.375 59.203125 -55.375 L 47.484375 -55.375 C 46.773438 -55.375 46.421875 -55.015625 46.421875 -54.296875 L 40.03125 -3.1875 C 39.894531 -2.195312 39.503906 -1.414062 38.859375 -0.84375 C 38.222656 -0.28125 37.476562 0 36.625 0 L 3.828125 0 C 2.984375 0 2.3125 -0.28125 1.8125 -0.84375 C 1.3125 -1.414062 1.132812 -2.195312 1.28125 -3.1875 L 18.734375 -145.875 C 18.878906 -146.863281 19.269531 -147.640625 19.90625 -148.203125 C 20.550781 -148.773438 21.296875 -149.0625 22.140625 -149.0625 Z M 54.09375 -86.25 C 57.21875 -86.25 59.878906 -87.421875 62.078125 -89.765625 C 64.273438 -92.109375 65.660156 -95.617188 66.234375 -100.296875 C 66.367188 -101.148438 66.4375 -102.359375 66.4375 -103.921875 C 66.4375 -107.472656 65.65625 -110.171875 64.09375 -112.015625 C 62.53125 -113.859375 60.398438 -114.78125 57.703125 -114.78125 L 54.734375 -114.78125 C 54.023438 -114.78125 53.671875 -114.425781 53.671875 -113.71875 L 50.46875 -87.3125 C 50.1875 -86.601562 50.472656 -86.25 51.328125 -86.25 Z M 54.09375 -86.25 "/></g></g></g><g fill="#425377" fill-opacity="0.4196"><g transform="translate(751.057554, 321.534739)"><g><path d="M 68.78125 -149.0625 C 80.132812 -149.0625 89.113281 -145.40625 95.71875 -138.09375 C 102.320312 -130.789062 105.625 -121.101562 105.625 -109.03125 C 105.625 -105.625 105.484375 -103 105.203125 -101.15625 C 104.066406 -92.070312 101.40625 -84.050781 97.21875 -77.09375 C 93.03125 -70.132812 87.632812 -64.773438 81.03125 -61.015625 C 74.425781 -57.253906 67.148438 -55.375 59.203125 -55.375 L 47.484375 -55.375 C 46.773438 -55.375 46.421875 -55.015625 46.421875 -54.296875 L 40.03125 -3.1875 C 39.894531 -2.195312 39.503906 -1.414062 38.859375 -0.84375 C 38.222656 -0.28125 37.476562 0 36.625 0 L 3.828125 0 C 2.984375 0 2.3125 -0.28125 1.8125 -0.84375 C 1.3125 -1.414062 1.132812 -2.195312 1.28125 -3.1875 L 18.734375 -145.875 C 18.878906 -146.863281 19.269531 -147.640625 19.90625 -148.203125 C 20.550781 -148.773438 21.296875 -149.0625 22.140625 -149.0625 Z M 54.09375 -86.25 C 57.21875 -86.25 59.878906 -87.421875 62.078125 -89.765625 C 64.273438 -92.109375 65.660156 -95.617188 66.234375 -100.296875 C 66.367188 -101.148438 66.4375 -102.359375 66.4375 -103.921875 C 66.4375 -107.472656 65.65625 -110.171875 64.09375 -112.015625 C 62.53125 -113.859375 60.398438 -114.78125 57.703125 -114.78125 L 54.734375 -114.78125 C 54.023438 -114.78125 53.671875 -114.425781 53.671875 -113.71875 L 50.46875 -87.3125 C 50.1875 -86.601562 50.472656 -86.25 51.328125 -86.25 Z M 54.09375 -86.25 "/></g></g></g><g fill="#feb40a" fill-opacity="1"><g transform="translate(535.605929, 315.834806)"><g><path d="M 66.234375 0 C 64.242188 0 63.316406 -0.992188 63.453125 -2.984375 L 63.03125 -19.171875 C 63.175781 -19.453125 63.101562 -19.695312 62.8125 -19.90625 C 62.53125 -20.125 62.25 -20.234375 61.96875 -20.234375 L 43.4375 -20.234375 C 42.726562 -20.234375 42.234375 -19.878906 41.953125 -19.171875 L 37.90625 -2.984375 C 37.476562 -0.992188 36.269531 0 34.28125 0 L 1.921875 0 C -0.210938 0 -0.992188 -1.132812 -0.421875 -3.40625 L 46.421875 -146.296875 C 46.992188 -148.140625 48.269531 -149.0625 50.25 -149.0625 L 87.953125 -149.0625 C 89.941406 -149.0625 91.003906 -148.140625 91.140625 -146.296875 L 102.859375 -3.40625 L 102.859375 -2.984375 C 102.859375 -0.992188 101.789062 0 99.65625 0 Z M 50.6875 -51.953125 C 50.394531 -51.242188 50.609375 -50.890625 51.328125 -50.890625 L 61.328125 -50.890625 C 61.753906 -50.890625 62.109375 -51.242188 62.390625 -51.953125 L 61.546875 -91.359375 C 61.546875 -91.921875 61.367188 -92.164062 61.015625 -92.09375 C 60.660156 -92.03125 60.484375 -91.785156 60.484375 -91.359375 Z M 50.6875 -51.953125 "/></g></g></g><g fill="#feb40a" fill-opacity="1"><g transform="translate(645.27744, 315.834806)"><g><path d="M 68.78125 -149.0625 C 80.132812 -149.0625 89.113281 -145.40625 95.71875 -138.09375 C 102.320312 -130.789062 105.625 -121.101562 105.625 -109.03125 C 105.625 -105.625 105.484375 -103 105.203125 -101.15625 C 104.066406 -92.070312 101.40625 -84.050781 97.21875 -77.09375 C 93.03125 -70.132812 87.632812 -64.773438 81.03125 -61.015625 C 74.425781 -57.253906 67.148438 -55.375 59.203125 -55.375 L 47.484375 -55.375 C 46.773438 -55.375 46.421875 -55.015625 46.421875 -54.296875 L 40.03125 -3.1875 C 39.894531 -2.195312 39.503906 -1.414062 38.859375 -0.84375 C 38.222656 -0.28125 37.476562 0 36.625 0 L 3.828125 0 C 2.984375 0 2.3125 -0.28125 1.8125 -0.84375 C 1.3125 -1.414062 1.132812 -2.195312 1.28125 -3.1875 L 18.734375 -145.875 C 18.878906 -146.863281 19.269531 -147.640625 19.90625 -148.203125 C 20.550781 -148.773438 21.296875 -149.0625 22.140625 -149.0625 Z M 54.09375 -86.25 C 57.21875 -86.25 59.878906 -87.421875 62.078125 -89.765625 C 64.273438 -92.109375 65.660156 -95.617188 66.234375 -100.296875 C 66.367188 -101.148438 66.4375 -102.359375 66.4375 -103.921875 C 66.4375 -107.472656 65.65625 -110.171875 64.09375 -112.015625 C 62.53125 -113.859375 60.398438 -114.78125 57.703125 -114.78125 L 54.734375 -114.78125 C 54.023438 -114.78125 53.671875 -114.425781 53.671875 -113.71875 L 50.46875 -87.3125 C 50.1875 -86.601562 50.472656 -86.25 51.328125 -86.25 Z M 54.09375 -86.25 "/></g></g></g><g fill="#feb40a" fill-opacity="1"><g transform="translate(744.727136, 315.834806)"><g><path d="M 68.78125 -149.0625 C 80.132812 -149.0625 89.113281 -145.40625 95.71875 -138.09375 C 102.320312 -130.789062 105.625 -121.101562 105.625 -109.03125 C 105.625 -105.625 105.484375 -103 105.203125 -101.15625 C 104.066406 -92.070312 101.40625 -84.050781 97.21875 -77.09375 C 93.03125 -70.132812 87.632812 -64.773438 81.03125 -61.015625 C 74.425781 -57.253906 67.148438 -55.375 59.203125 -55.375 L 47.484375 -55.375 C 46.773438 -55.375 46.421875 -55.015625 46.421875 -54.296875 L 40.03125 -3.1875 C 39.894531 -2.195312 39.503906 -1.414062 38.859375 -0.84375 C 38.222656 -0.28125 37.476562 0 36.625 0 L 3.828125 0 C 2.984375 0 2.3125 -0.28125 1.8125 -0.84375 C 1.3125 -1.414062 1.132812 -2.195312 1.28125 -3.1875 L 18.734375 -145.875 C 18.878906 -146.863281 19.269531 -147.640625 19.90625 -148.203125 C 20.550781 -148.773438 21.296875 -149.0625 22.140625 -149.0625 Z M 54.09375 -86.25 C 57.21875 -86.25 59.878906 -87.421875 62.078125 -89.765625 C 64.273438 -92.109375 65.660156 -95.617188 66.234375 -100.296875 C 66.367188 -101.148438 66.4375 -102.359375 66.4375 -103.921875 C 66.4375 -107.472656 65.65625 -110.171875 64.09375 -112.015625 C 62.53125 -113.859375 60.398438 -114.78125 57.703125 -114.78125 L 54.734375 -114.78125 C 54.023438 -114.78125 53.671875 -114.425781 53.671875 -113.71875 L 50.46875 -87.3125 C 50.1875 -86.601562 50.472656 -86.25 51.328125 -86.25 Z M 54.09375 -86.25 "/></g></g></g></svg>